<svg width="20" height="20" viewBox="0 0 20 20" fill="none" xmlns="http://www.w3.org/2000/svg">
<path d="M1.66675 2.5H3.75008L5.41675 14.1667H14.1667M14.1667 14.1667C13.2463 14.1667 12.5001 14.9129 12.5001 15.8333C12.5001 16.7538 13.2463 17.5 14.1667 17.5C15.0872 17.5 15.8334 16.7538 15.8334 15.8333C15.8334 14.9129 15.0872 14.1667 14.1667 14.1667ZM5.0596 11.6667H15.0001L17.5001 4.16667H3.98817M9.16675 15.8333C9.16675 16.7538 8.42056 17.5 7.50008 17.5C6.57961 17.5 5.83341 16.7538 5.83341 15.8333C5.83341 14.9129 6.57961 14.1667 7.50008 14.1667C8.42056 14.1667 9.16675 14.9129 9.16675 15.8333Z" stroke="#7D2E0B" stroke-width="1.5" stroke-linecap="round" stroke-linejoin="round"/>
</svg>
