<svg width="18" height="17" viewBox="0 0 18 17" fill="none" xmlns="http://www.w3.org/2000/svg">
<path d="M6.98338 3.83075C7.88084 2.22141 8.32921 1.41675 9 1.41675C9.6708 1.41675 10.1192 2.22141 11.0166 3.83075L11.249 4.24725C11.504 4.70483 11.6315 4.93362 11.8298 5.0845C12.0281 5.23537 12.276 5.29133 12.7719 5.40325L13.2224 5.50525C14.9649 5.89979 15.8354 6.09671 16.043 6.76325C16.2498 7.42908 15.6562 8.12396 14.4683 9.513L14.1609 9.87212C13.8238 10.2667 13.6545 10.4643 13.5787 10.708C13.5029 10.9523 13.5284 11.2158 13.5794 11.7421L13.6261 12.2217C13.8053 14.0754 13.8953 15.0019 13.3527 15.4134C12.8101 15.8257 11.9941 15.4495 10.3635 14.6987L9.94067 14.5046C9.47742 14.2907 9.2458 14.1845 9 14.1845C8.75421 14.1845 8.52259 14.2907 8.05934 14.5046L7.63717 14.6987C6.00588 15.4495 5.18988 15.825 4.648 15.4141C4.10471 15.0019 4.19467 14.0754 4.37388 12.2217L4.42063 11.7428C4.47163 11.2158 4.49713 10.9523 4.42063 10.7087C4.34555 10.4643 4.17625 10.2667 3.83909 9.87283L3.53167 9.513C2.3438 8.12466 1.75021 7.42979 1.95705 6.76325C2.16459 6.09671 3.03584 5.89908 4.77834 5.50525L5.22884 5.40325C5.72396 5.29133 5.97117 5.23537 6.17021 5.0845C6.36855 4.93362 6.49605 4.70483 6.75105 4.24725L6.98338 3.83075Z" fill="#FFC700"/>
</svg>
